<?xml version="1.0" encoding="UTF-8"?>
<!DOCTYPE svg PUBLIC "-//W3C//DTD SVG 1.1//EN" "http://www.w3.org/Graphics/SVG/1.1/DTD/svg11.dtd">
<svg xmlns="http://www.w3.org/2000/svg" version="1.1" width="277px" height="250px" style="shape-rendering:geometricPrecision; text-rendering:geometricPrecision; image-rendering:optimizeQuality; fill-rule:evenodd; clip-rule:evenodd" xmlns:xlink="http://www.w3.org/1999/xlink">
<g><path style="opacity:0.565" fill="#84c5ad" d="M 28.5,11.5 C 24.6707,10.931 21.3373,11.5977 18.5,13.5C 13.8514,11.9707 13.6847,10.6374 18,9.5C 21.6974,9.85509 25.1974,10.5218 28.5,11.5 Z"/></g>
<g><path style="opacity:0.588" fill="#6eb898" d="M 256.5,12.5 C 254.938,12.7329 253.605,13.3995 252.5,14.5C 252.5,13.5 252.5,12.5 252.5,11.5C 248.19,12.0802 243.857,12.4135 239.5,12.5C 244.263,10.9796 249.263,9.97964 254.5,9.5C 256.389,9.43628 258.056,9.93628 259.5,11C 258.756,12.0386 257.756,12.5386 256.5,12.5 Z"/></g>
<g><path style="opacity:0.937" fill="#55b382" d="M 28.5,11.5 C 34.1636,11.9608 39.497,13.2941 44.5,15.5C 38.9395,14.1043 33.2728,13.4376 27.5,13.5C 26.0813,12.5489 24.4147,12.2155 22.5,12.5C 22.5,13.5 22.5,14.5 22.5,15.5C 21.3951,14.3995 20.0618,13.7329 18.5,13.5C 21.3373,11.5977 24.6707,10.931 28.5,11.5 Z"/></g>
<g><path style="opacity:0.435" fill="#8cddba" d="M 239.5,12.5 C 237.162,14.0395 234.495,14.7062 231.5,14.5C 233.838,12.9605 236.505,12.2938 239.5,12.5 Z"/></g>
<g><path style="opacity:1" fill="#14a551" d="M 27.5,13.5 C 33.2728,13.4376 38.9395,14.1043 44.5,15.5C 47.2328,17.0032 50.0661,18.6699 53,20.5C 56.0261,21.8718 59.1927,22.5385 62.5,22.5C 63.976,24.5 65.8094,26.1666 68,27.5C 68.3826,26.944 68.8826,26.6107 69.5,26.5C 71.4941,30.4534 74.8274,32.4534 79.5,32.5C 79.238,33.9778 79.5713,35.3112 80.5,36.5C 84.9002,38.6906 88.9002,41.3572 92.5,44.5C 94.1667,45.8333 95.8333,47.1667 97.5,48.5C 99.1667,49.5 100.5,50.8333 101.5,52.5C 101.343,53.8734 101.51,55.2068 102,56.5C 105.06,59.9524 107.06,63.9524 108,68.5C 109.011,69.3366 110.178,69.67 111.5,69.5C 111.34,71.1992 111.506,72.8659 112,74.5C 115.762,80.0755 119.262,85.7421 122.5,91.5C 122.5,91.8333 122.5,92.1667 122.5,92.5C 122.41,95.1522 123.076,97.4855 124.5,99.5C 124.5,100.833 124.5,102.167 124.5,103.5C 125.819,113.708 126.985,124.041 128,134.5C 128.766,167.178 128.599,199.845 127.5,232.5C 125.473,232.662 123.473,232.495 121.5,232C 117.397,230.073 113.397,227.906 109.5,225.5C 104.033,226.232 99.3664,224.566 95.5,220.5C 90.5234,219.593 85.5234,218.927 80.5,218.5C 77.3336,213.755 73.0003,210.755 67.5,209.5C 67.0269,208.094 66.0269,207.427 64.5,207.5C 59.5,203.833 55.1667,199.5 51.5,194.5C 50.951,188.709 47.951,184.709 42.5,182.5C 42.5,182.167 42.5,181.833 42.5,181.5C 40.3922,176.684 38.5589,171.684 37,166.5C 35.9331,164.308 34.4331,162.642 32.5,161.5C 31.7659,160.292 31.4326,158.959 31.5,157.5C 31.8064,154.615 31.4731,151.948 30.5,149.5C 30.2804,144.319 29.4471,139.319 28,134.5C 27.6667,96.1667 27.3333,57.8333 27,19.5C 22.71,16.2338 22.8766,14.2338 27.5,13.5 Z"/></g>
<g><path style="opacity:0.686" fill="#7ecfa7" d="M 231.5,14.5 C 230.01,16.2798 228.01,16.9465 225.5,16.5C 227.214,15.2616 229.214,14.595 231.5,14.5 Z"/></g>
<g><path style="opacity:0.035" fill="#b2ebd5" d="M 256.5,12.5 C 255.167,14.5 253.5,16.1667 251.5,17.5C 251.5,16.8333 251.5,16.1667 251.5,15.5C 252.167,15.5 252.5,15.1667 252.5,14.5C 253.605,13.3995 254.938,12.7329 256.5,12.5 Z"/></g>
<g><path style="opacity:0.459" fill="#78cfa5" d="M 225.5,16.5 C 223.5,17.8333 221.5,19.1667 219.5,20.5C 218.167,20.5 216.833,20.5 215.5,20.5C 218.53,18.5968 221.863,17.2635 225.5,16.5 Z"/></g>
<g><path style="opacity:0.851" fill="#68c093" d="M 44.5,15.5 C 50.8789,17.0668 56.8789,19.4002 62.5,22.5C 59.1927,22.5385 56.0261,21.8718 53,20.5C 50.0661,18.6699 47.2328,17.0032 44.5,15.5 Z"/></g>
<g><path style="opacity:0.145" fill="#99ecce" d="M 250.5,19.5 C 250.435,22.4282 249.768,25.0948 248.5,27.5C 248.294,24.5049 248.96,21.8383 250.5,19.5 Z"/></g>
<g><path style="opacity:1" fill="#14a651" d="M 246.5,63.5 C 246.667,86.5024 246.5,109.502 246,132.5C 244.405,140.743 243.238,149.077 242.5,157.5C 239.248,160.36 237.914,164.027 238.5,168.5C 236.376,169.031 234.876,170.365 234,172.5C 232.635,178.948 229.135,183.615 223.5,186.5C 223.425,189.206 223.092,191.873 222.5,194.5C 220.304,194.565 218.304,195.232 216.5,196.5C 213.899,200.436 210.899,203.936 207.5,207C 206.207,207.49 204.873,207.657 203.5,207.5C 203.439,209.592 202.439,211.092 200.5,212C 197.805,214.215 194.805,215.715 191.5,216.5C 191.5,217.5 191.5,218.5 191.5,219.5C 189.473,219.338 187.473,219.505 185.5,220C 184.027,220.71 183.36,221.876 183.5,223.5C 176.201,224.596 169.201,226.763 162.5,230C 159.146,230.455 155.813,230.955 152.5,231.5C 150.5,231.5 148.5,231.5 146.5,231.5C 146.176,194.82 146.676,158.153 148,121.5C 150.922,112.893 152.088,104.226 151.5,95.5C 151.5,94.1667 151.5,92.8333 151.5,91.5C 153.397,89.3025 154.397,86.6358 154.5,83.5C 155.818,82.2426 157.151,80.9093 158.5,79.5C 161.711,73.7447 164.378,67.7447 166.5,61.5C 170.282,60.2117 172.449,57.5451 173,53.5C 175.556,52.7809 176.723,51.1142 176.5,48.5C 180.839,47.0048 184.173,44.1715 186.5,40C 193.579,35.1312 200.913,30.7979 208.5,27C 210.134,26.5065 211.801,26.3398 213.5,26.5C 213.614,24.2821 214.28,22.2821 215.5,20.5C 216.833,20.5 218.167,20.5 219.5,20.5C 224.735,20.5034 229.402,19.0034 233.5,16C 235.698,15.6271 237.865,15.1271 240,14.5C 241.394,15.6133 242.561,16.9466 243.5,18.5C 249.078,15.4193 249.912,16.4193 246,21.5C 245.173,35.6728 245.339,49.6728 246.5,63.5 Z"/></g>
<g><path style="opacity:0.859" fill="#6cc195" d="M 62.5,22.5 C 65.3311,23.0787 67.6644,24.412 69.5,26.5C 68.8826,26.6107 68.3826,26.944 68,27.5C 65.8094,26.1666 63.976,24.5 62.5,22.5 Z"/></g>
<g><path style="opacity:0.612" fill="#5db786" d="M 69.5,26.5 C 73.173,28.0002 76.5063,30.0002 79.5,32.5C 74.8274,32.4534 71.4941,30.4534 69.5,26.5 Z"/></g>
<g><path style="opacity:1" fill="#1ea157" d="M 252.5,14.5 C 252.5,15.1667 252.167,15.5 251.5,15.5C 250.503,15.4701 249.836,15.9701 249.5,17C 248.464,19.7741 247.631,22.6074 247,25.5C 246.5,38.1623 246.333,50.8289 246.5,63.5C 245.339,49.6728 245.173,35.6728 246,21.5C 249.912,16.4193 249.078,15.4193 243.5,18.5C 242.561,16.9466 241.394,15.6133 240,14.5C 237.865,15.1271 235.698,15.6271 233.5,16C 229.402,19.0034 224.735,20.5034 219.5,20.5C 221.5,19.1667 223.5,17.8333 225.5,16.5C 228.01,16.9465 230.01,16.2798 231.5,14.5C 234.495,14.7062 237.162,14.0395 239.5,12.5C 243.857,12.4135 248.19,12.0802 252.5,11.5C 252.5,12.5 252.5,13.5 252.5,14.5 Z"/></g>
<g><path style="opacity:0.925" fill="#43aa71" d="M 215.5,20.5 C 214.28,22.2821 213.614,24.2821 213.5,26.5C 211.801,26.3398 210.134,26.5065 208.5,27C 200.913,30.7979 193.579,35.1312 186.5,40C 184.173,44.1715 180.839,47.0048 176.5,48.5C 176.5,47.8333 176.833,47.5 177.5,47.5C 179.167,46.5 180.5,45.1667 181.5,43.5C 191.096,33.3611 202.429,25.6944 215.5,20.5 Z"/></g>
<g><path style="opacity:0.945" fill="#53b17e" d="M 79.5,32.5 C 84.3743,35.1068 88.7076,38.4401 92.5,42.5C 92.5,43.1667 92.5,43.8333 92.5,44.5C 88.9002,41.3572 84.9002,38.6906 80.5,36.5C 79.5713,35.3112 79.238,33.9778 79.5,32.5 Z"/></g>
<g><path style="opacity:0.024" fill="#a5edc9" d="M 92.5,42.5 C 94.914,43.9108 96.5806,45.9108 97.5,48.5C 95.8333,47.1667 94.1667,45.8333 92.5,44.5C 92.5,43.8333 92.5,43.1667 92.5,42.5 Z"/></g>
<g><path style="opacity:0.235" fill="#aee3c9" d="M 181.5,43.5 C 180.5,45.1667 179.167,46.5 177.5,47.5C 177.833,45.1667 179.167,43.8333 181.5,43.5 Z"/></g>
<g><path style="opacity:0.272" fill="#a6e8c8" d="M 18.5,13.5 C 20.0618,13.7329 21.3951,14.3995 22.5,15.5C 24.3709,19.6175 25.5376,23.9508 26,28.5C 26.5,62.4984 26.6667,96.4984 26.5,130.5C 25.6485,94.997 24.8151,59.3303 24,23.5C 22.9301,19.6891 21.0967,16.3557 18.5,13.5 Z"/></g>
<g><path style="opacity:0.894" fill="#52af7c" d="M 176.5,48.5 C 176.723,51.1142 175.556,52.7809 173,53.5C 172.449,57.5451 170.282,60.2117 166.5,61.5C 167.809,58.2223 169.642,55.2223 172,52.5C 173.371,50.9586 174.871,49.6253 176.5,48.5 Z"/></g>
<g><path style="opacity:0.157" fill="#8be1be" d="M 161.5,69.5 C 161.573,71.0269 160.906,72.0269 159.5,72.5C 159.427,70.9731 160.094,69.9731 161.5,69.5 Z"/></g>
<g><path style="opacity:1" fill="#4faf79" d="M 101.5,52.5 C 110.829,64.1528 117.829,77.1528 122.5,91.5C 119.262,85.7421 115.762,80.0755 112,74.5C 111.506,72.8659 111.34,71.1992 111.5,69.5C 110.178,69.67 109.011,69.3366 108,68.5C 107.06,63.9524 105.06,59.9524 102,56.5C 101.51,55.2068 101.343,53.8734 101.5,52.5 Z"/></g>
<g><path style="opacity:0.976" fill="#4fb07b" d="M 166.5,61.5 C 164.378,67.7447 161.711,73.7447 158.5,79.5C 157.151,80.9093 155.818,82.2426 154.5,83.5C 155.376,79.4179 157.043,75.7512 159.5,72.5C 160.906,72.0269 161.573,71.0269 161.5,69.5C 162.383,66.2957 164.05,63.6291 166.5,61.5 Z"/></g>
<g><path style="opacity:0.759" fill="#349b62" d="M 27.5,13.5 C 22.8766,14.2338 22.71,16.2338 27,19.5C 27.3333,57.8333 27.6667,96.1667 28,134.5C 29.4471,139.319 30.2804,144.319 30.5,149.5C 29.8333,148.5 29.1667,147.5 28.5,146.5C 27.0337,141.308 26.367,135.975 26.5,130.5C 26.6667,96.4984 26.5,62.4984 26,28.5C 25.5376,23.9508 24.3709,19.6175 22.5,15.5C 22.5,14.5 22.5,13.5 22.5,12.5C 24.4147,12.2155 26.0813,12.5489 27.5,13.5 Z"/></g>
<g><path style="opacity:0.702" fill="#8bd5b2" d="M 154.5,83.5 C 154.397,86.6358 153.397,89.3025 151.5,91.5C 151.733,88.4582 152.733,85.7916 154.5,83.5 Z"/></g>
<g><path style="opacity:0.611" fill="#54b07d" d="M 251.5,15.5 C 251.5,16.1667 251.5,16.8333 251.5,17.5C 251.672,18.4916 251.338,19.1583 250.5,19.5C 248.96,21.8383 248.294,24.5049 248.5,27.5C 248.667,61.835 248.5,96.1683 248,130.5C 247.654,139.938 245.821,148.938 242.5,157.5C 243.238,149.077 244.405,140.743 246,132.5C 246.5,109.502 246.667,86.5024 246.5,63.5C 246.333,50.8289 246.5,38.1623 247,25.5C 247.631,22.6074 248.464,19.7741 249.5,17C 249.836,15.9701 250.503,15.4701 251.5,15.5 Z"/></g>
<g><path style="opacity:0.502" fill="#78cea6" d="M 122.5,92.5 C 124.163,94.4385 124.829,96.7718 124.5,99.5C 123.076,97.4855 122.41,95.1522 122.5,92.5 Z"/></g>
<g><path style="opacity:0.255" fill="#9de5be" d="M 151.5,91.5 C 151.5,92.8333 151.5,94.1667 151.5,95.5C 150.833,96.5 150.167,97.5 149.5,98.5C 149.41,95.8478 150.076,93.5145 151.5,91.5 Z"/></g>
<g><path style="opacity:0.259" fill="#99dfbd" d="M 149.5,98.5 C 149.373,103.151 148.373,107.485 146.5,111.5C 146.74,106.88 147.74,102.547 149.5,98.5 Z"/></g>
<g><path style="opacity:0.063" fill="#93e7c5" d="M 124.5,99.5 C 125.924,101.515 126.59,103.848 126.5,106.5C 125.833,105.5 125.167,104.5 124.5,103.5C 124.5,102.167 124.5,100.833 124.5,99.5 Z"/></g>
<g><path style="opacity:0.184" fill="#89d2aa" d="M 146.5,112.5 C 146.299,118.509 145.966,124.509 145.5,130.5C 145.167,130.5 144.833,130.5 144.5,130.5C 144.276,124.261 144.943,118.261 146.5,112.5 Z"/></g>
<g><path style="opacity:0.161" fill="#7fd2a8" d="M 127.5,112.5 C 128.806,117.616 129.473,122.949 129.5,128.5C 127.922,123.417 127.255,118.084 127.5,112.5 Z"/></g>
<g><path style="opacity:0.94" fill="#229e58" d="M 151.5,95.5 C 152.088,104.226 150.922,112.893 148,121.5C 146.676,158.153 146.176,194.82 146.5,231.5C 148.5,231.5 150.5,231.5 152.5,231.5C 152.5,232.167 152.167,232.5 151.5,232.5C 149.5,232.5 147.5,232.5 145.5,232.5C 145.5,198.5 145.5,164.5 145.5,130.5C 145.966,124.509 146.299,118.509 146.5,112.5C 146.5,112.167 146.5,111.833 146.5,111.5C 148.373,107.485 149.373,103.151 149.5,98.5C 150.167,97.5 150.833,96.5 151.5,95.5 Z"/></g>
<g><path style="opacity:0.808" fill="#68ba8b" d="M 28.5,146.5 C 29.1667,147.5 29.8333,148.5 30.5,149.5C 31.4731,151.948 31.8064,154.615 31.5,157.5C 29.9257,154.093 28.9257,150.427 28.5,146.5 Z"/></g>
<g><path style="opacity:0.655" fill="#5fba87" d="M 242.5,157.5 C 241.975,161.533 240.642,165.2 238.5,168.5C 237.914,164.027 239.248,160.36 242.5,157.5 Z"/></g>
<g><path style="opacity:0.467" fill="#4eac78" d="M 32.5,161.5 C 34.4331,162.642 35.9331,164.308 37,166.5C 38.5589,171.684 40.3922,176.684 42.5,181.5C 38.1317,175.43 34.7984,168.764 32.5,161.5 Z"/></g>
<g><path style="opacity:0.612" fill="#44a971" d="M 238.5,168.5 C 234.668,178.179 229.335,186.845 222.5,194.5C 223.092,191.873 223.425,189.206 223.5,186.5C 229.135,183.615 232.635,178.948 234,172.5C 234.876,170.365 236.376,169.031 238.5,168.5 Z"/></g>
<g><path style="opacity:0.986" fill="#42a86c" d="M 42.5,182.5 C 47.951,184.709 50.951,188.709 51.5,194.5C 48.0251,190.896 45.0251,186.896 42.5,182.5 Z"/></g>
<g><path style="opacity:0.208" fill="#9edfbb" d="M 64.5,207.5 C 66.0269,207.427 67.0269,208.094 67.5,209.5C 65.9731,209.573 64.9731,208.906 64.5,207.5 Z"/></g>
<g><path style="opacity:0.645" fill="#66bb8d" d="M 144.5,130.5 C 144.833,130.5 145.167,130.5 145.5,130.5C 145.5,164.5 145.5,198.5 145.5,232.5C 147.5,232.5 149.5,232.5 151.5,232.5C 150.5,233.167 149.5,233.833 148.5,234.5C 146.549,234.773 145.049,234.107 144,232.5C 143.174,198.429 143.341,164.429 144.5,130.5 Z"/></g>
<g><path style="opacity:0.953" fill="#5bb683" d="M 67.5,209.5 C 73.0003,210.755 77.3336,213.755 80.5,218.5C 75.3346,216.662 71.0013,213.662 67.5,209.5 Z"/></g>
<g><path style="opacity:0.89" fill="#4ead77" d="M 222.5,194.5 C 213.822,204.99 203.488,213.324 191.5,219.5C 191.5,218.5 191.5,217.5 191.5,216.5C 194.805,215.715 197.805,214.215 200.5,212C 202.439,211.092 203.439,209.592 203.5,207.5C 204.873,207.657 206.207,207.49 207.5,207C 210.899,203.936 213.899,200.436 216.5,196.5C 218.304,195.232 220.304,194.565 222.5,194.5 Z"/></g>
<g><path style="opacity:0.798" fill="#41a96b" d="M 124.5,103.5 C 125.167,104.5 125.833,105.5 126.5,106.5C 127.341,108.379 127.675,110.379 127.5,112.5C 127.255,118.084 127.922,123.417 129.5,128.5C 130.626,163.484 130.793,198.484 130,233.5C 125.339,234.616 120.839,234.283 116.5,232.5C 114.485,231.076 112.152,230.41 109.5,230.5C 106.101,227.803 102.101,226.47 97.5,226.5C 95.1645,223.835 92.1645,222.502 88.5,222.5C 85.5152,221.674 82.8485,220.341 80.5,218.5C 85.5234,218.927 90.5234,219.593 95.5,220.5C 99.3664,224.566 104.033,226.232 109.5,225.5C 113.397,227.906 117.397,230.073 121.5,232C 123.473,232.495 125.473,232.662 127.5,232.5C 128.599,199.845 128.766,167.178 128,134.5C 126.985,124.041 125.819,113.708 124.5,103.5 Z"/></g>
<g><path style="opacity:0.89" fill="#5fba84" d="M 191.5,219.5 C 189.151,221.341 186.485,222.674 183.5,223.5C 183.36,221.876 184.027,220.71 185.5,220C 187.473,219.505 189.473,219.338 191.5,219.5 Z"/></g>
<g><path style="opacity:0.682" fill="#72c296" d="M 88.5,222.5 C 92.1645,222.502 95.1645,223.835 97.5,226.5C 94.0884,225.925 91.0884,224.592 88.5,222.5 Z"/></g>
<g><path style="opacity:0.843" fill="#5ab185" d="M 97.5,226.5 C 102.101,226.47 106.101,227.803 109.5,230.5C 105.233,229.744 101.233,228.411 97.5,226.5 Z"/></g>
<g><path style="opacity:0.745" fill="#5eb886" d="M 183.5,223.5 C 172.57,229.156 160.904,232.822 148.5,234.5C 149.5,233.833 150.5,233.167 151.5,232.5C 152.167,232.5 152.5,232.167 152.5,231.5C 155.813,230.955 159.146,230.455 162.5,230C 169.201,226.763 176.201,224.596 183.5,223.5 Z"/></g>
<g><path style="opacity:0.196" fill="#8ccfa9" d="M 109.5,230.5 C 112.152,230.41 114.485,231.076 116.5,232.5C 113.848,232.59 111.515,231.924 109.5,230.5 Z"/></g>
</svg>
